<svg xmlns="http://www.w3.org/2000/svg" width="269.161" height="285.956" viewBox="0 0 269.161 285.956">
  <defs>
    <style>
      .cls-1 {
        opacity: 0.2;
      }

      .cls-2 {
        fill: #d0cde1;
      }

      .cls-3 {
        fill: #f1bd2e;
      }

      .cls-4 {
        fill: #8b8b8b;
      }
    </style>
  </defs>
  <g id="undraw_male_avatar_323b" transform="translate(-46.318 -43.559)">
    <path id="Path_4" data-name="Path 4" class="cls-1" d="M482.882,322.527C479.7,340.462,486.72,356.7,486.72,356.7s12.171-12.838,15.35-30.772-3.838-34.173-3.838-34.173S486.061,304.594,482.882,322.527Z" transform="translate(-380.169 -209.485)"/>
    <circle id="Ellipse_3" data-name="Ellipse 3" class="cls-2" cx="65.649" cy="65.649" r="65.649" transform="translate(94.652 67.101)"/>
    <path id="Path_7" data-name="Path 7" class="cls-2" d="M547.833,473.3s8.206,38.979,8.206,43.082,38.979,22.567,38.979,22.567l34.876-6.155L642.2,495.869s-20.515-30.773-20.515-43.082Z" transform="translate(-413.176 -290.29)"/>
    <path id="Path_8" data-name="Path 8" class="cls-3" d="M648.071,550.072l-.558,1.285a168.673,168.673,0,0,1-183.495,98.271q-1.517-.269-3.029-.558a166.892,166.892,0,0,1-30.46-8.983q-2.4-.964-4.763-2c-1.076-.468-2.152-.952-3.218-1.45a168.186,168.186,0,0,1-27.526-16.082l-7.782-22.574,4.374-3.338,9-6.87,9.6-7.329,2.5-1.908,37.669-28.757,2.78-2.122,19.58-14.946,0,0s21.174,34.5,51.948,24.243,30.1-39.672,30.1-39.672Z" transform="translate(-332.592 -322.652)"/>
    <path id="Path_9" data-name="Path 9" class="cls-4" d="M469.484,250.355s20.843-45.16,60.793-34.739,62.53,26.054,64.267,41.687-.868,39.081-.868,39.081-4.342-32.133-32.133-25.186-71.214,1.737-71.214,1.737l-6.948,62.53s-7.816-11.29-16.5-4.342S441.693,264.25,469.484,250.355Z" transform="translate(-366.114 -170.496)"/>
    <path id="Path_10" data-name="Path 10" class="cls-3" d="M422.139,721.374q-2.4-.964-4.763-2c-1.076-.468-2.152-.952-3.218-1.45a168.812,168.812,0,0,1-43.638-29.245,59.031,59.031,0,0,1,8.33-9.411h30.774l4.613,15.514Z" transform="translate(-324.202 -403.937)"/>
    <path id="Path_11" data-name="Path 11" class="cls-3" d="M854.778,576.32l26.4,4.663A168.36,168.36,0,0,1,852.9,625.109Z" transform="translate(-566.256 -352.278)"/>
  </g>
</svg>
